<svg xmlns="http://www.w3.org/2000/svg" viewBox="0 0 279.33 157.51"><defs><style>.cls-1{fill:#fff;}</style></defs><title>idfg-logo-branco</title><g id="Camada_2" data-name="Camada 2"><g id="Camada_1-2" data-name="Camada 1"><path class="cls-1" d="M201.53,62.91V21.68q0-12,5.81-16.85T227.52,0h42.9V18.92h-42q-3.62.38-4.23,3.63V65.16Q225.1,68,229,68.79h18.13q6.65,0,7.25-3.88V54H242.61V37.34h34.45V65.41q0,8.4-2,11.9-5.89,10.4-21.3,10.4H227.67q-23.11,0-25.68-14.79a69.55,69.55,0,0,1-.45-10"/><path class="cls-1" d="M0,16.21A14.57,14.57,0,0,1,4.27,4.71,15.33,15.33,0,0,1,15.67,0a15,15,0,0,1,11,4.62,15,15,0,0,1,4.62,11,15,15,0,0,1-4.62,11.12,15.43,15.43,0,0,1-11.21,4.52A14.58,14.58,0,0,1,4.74,26.95,16,16,0,0,1,0,16.21"/><rect class="cls-1" x="4.6" y="37.47" width="22.66" height="53.27"/><path class="cls-1" d="M88.48,72.25q4.53,0,6-1.25,1.21-.88,1.66-5a4.4,4.4,0,0,0,.15-1.25V26.39q0-3.13-6.19-3.88a9.6,9.6,0,0,0-1.81-.13H65.07V72.25ZM42.41,91.17V3.46H96.33q22.81,0,22.81,19.42v49a25,25,0,0,1-.3,3.26q-2.26,16-21.6,16-.6.5-54.83,0"/><path class="cls-1" d="M129.51,21.37q0-13.66,11.93-16.92,3.63-1,11.93-1h51.95l0,0-.07.07h0l-.08.07h0l-.07.07,0,0-.09.09-.09.09,0,0h0l-.1.11,0,0-.07.07,0,0-.08.09h0l-.08.09h0l-.25.29-.08.1h0l-.08.1-.16.2-.06.07,0,0-.16.2,0,0-.06.08,0,.05,0,.05-.06.08,0,0-.08.1-.08.1-.06.09,0,0,0,.05,0,.05,0,0-.06.08-.07.11-.07.11-.22.32-.07.11-.07.11,0,0-.05.08,0,.06-.24.39,0,0v0q-.24.4-.47.82v0l0,0-.07.12-.06.12,0,0,0,0-.13.24V9c-.14.28-.28.57-.41.86v0l0,0,0,.11h0l0,.06,0,0-.09.21c-.16.37-.39,1-.7,1.89l0,.14v.07l-.1.31v0l-.09.28,0,.06,0,.15,0,.08,0,.1v0l0,.16v0l0,.15,0,.14h0v.06l0,.09,0,.15,0,.13v0l0,.15,0,.09-.07.29h0l-.08.35h0l0,.15v0l0,.11,0,.08,0,.07,0,.11V16l0,.18,0,.11,0,.12h0l0,.14h0l0,.11v0l0,.15h0l0,.16v0l0,.13,0,.16,0,.1v.09l0,.2,0,.1,0,.14,0,.11,0,.15v.07l0,.14v0l0,.16h0v0l0,.14h0v.44l0,.17h0l0,.16V20l0,.17,0,.16h0l0,.17V21l0,.33v0h0q0,.32,0,.64v.38H160c-4.53,0-7.06,1.43-7.7,4.26a4.54,4.54,0,0,0-.15,1.13v9.9h45.91V56.58H152.17V91.17H129.51V21.37Z"/><path class="cls-1" d="M270.83,111v-2.82h5a.6.6,0,0,0,.55-.44.22.22,0,0,0,0-.11v-.23a.52.52,0,0,0-.47-.55h-2.44a2.46,2.46,0,0,1-1.21-.32,2.36,2.36,0,0,1-1.42-2.06v-2.08a2.81,2.81,0,0,1,.09-.66,2.37,2.37,0,0,1,2.64-1.87h5.65l.06,2.82H274.2l-.21.08c-.21.21-.32.36-.32.45v.25c0,.28.23.46.68.53h2.5a2.55,2.55,0,0,1,2.42,2.48v2a2.69,2.69,0,0,1-.39,1.3,2.36,2.36,0,0,1-.94.92,2.82,2.82,0,0,1-1.29.25Zm-4.52-7.61v-.11a.59.59,0,0,0-.52-.42l-.15,0H263.7a.86.86,0,0,0-.84.42.57.57,0,0,0-.06.29v1.15Zm-6.38-.91a2.84,2.84,0,0,1,.06-.57,2.44,2.44,0,0,1,2.7-2h3.84a2.34,2.34,0,0,1,2.63,2.22,3.83,3.83,0,0,1,0,.46v2.22l-6.38,2.45v.19c0,.51.18.77.55.77h5.81V111H263a3.53,3.53,0,0,1-1.67-.32,2.68,2.68,0,0,1-1.36-2.57Zm-15.88.07a2.72,2.72,0,0,1,.36-1.51,2.49,2.49,0,0,1,2.22-1.17h2.16a2.32,2.32,0,0,1,2.2,1,2.32,2.32,0,0,1,2.2-1h2.16a2.49,2.49,0,0,1,2.22,1.17,2.74,2.74,0,0,1,.38,1.51V111h-2.82v-7.46c0-.56-.26-.85-.78-.85h-1.25a.85.85,0,0,0-.27.06.64.64,0,0,0-.44.66V111h-2.82v-7.59a.69.69,0,0,0-.58-.72h-1.34a.73.73,0,0,0-.77.66.34.34,0,0,1,0,.08V111h-2.82Zm-11.35,6v-6.13a2.84,2.84,0,0,1,.06-.51,2.42,2.42,0,0,1,2.74-2h3.79a3.08,3.08,0,0,1,2,.64,2.27,2.27,0,0,1,.77,1.87v6.13a2.27,2.27,0,0,1-.77,1.86,3.08,3.08,0,0,1-2,.64h-3.79q-2.48,0-2.74-2Zm3.46-.32h2.5a.56.56,0,0,0,.43-.26.87.87,0,0,0,.2-.52v-3.94a.85.85,0,0,0-.2-.5.56.56,0,0,0-.43-.26h-2.5a.55.55,0,0,0-.45.25.85.85,0,0,0-.19.51v4a.84.84,0,0,0,.19.51.55.55,0,0,0,.45.25m-33.33.32v-6.13a2.78,2.78,0,0,1,.07-.51,2.42,2.42,0,0,1,2.73-2h3.8a3.08,3.08,0,0,1,2,.64,2.28,2.28,0,0,1,.77,1.87v6.13a2.27,2.27,0,0,1-.77,1.86,3.08,3.08,0,0,1-2,.64h-3.8q-2.48,0-2.73-2Zm3.46-.32h2.5a.56.56,0,0,0,.44-.26.86.86,0,0,0,.2-.52v-3.94a.84.84,0,0,0-.2-.5.56.56,0,0,0-.44-.26h-2.5a.55.55,0,0,0-.45.25.86.86,0,0,0-.19.51v4a.85.85,0,0,0,.19.51.55.55,0,0,0,.45.25M198,103.3a.7.7,0,0,0-.74-.66h-2.15a.75.75,0,0,0-.8.66.31.31,0,0,0,0,.13v4a.61.61,0,0,0,.53.64.44.44,0,0,0,.17,0h2.3a.44.44,0,0,0,.17,0c.36-.06.55-.21.55-.45Zm-6.55,4.85v-6a2.37,2.37,0,0,1,2-2.25,2.61,2.61,0,0,1,.55-.06h4V95.67h2.82V108a3.17,3.17,0,0,1-.72,2.18,2.67,2.67,0,0,1-2.1.81h-4a2.39,2.39,0,0,1-2.22-1.32,3,3,0,0,1-.34-1.48M180.34,111v-8.48a3.74,3.74,0,0,1,0-.51A2.32,2.32,0,0,1,183,99.82h3.92a2.32,2.32,0,0,1,2.61,2.14,3.91,3.91,0,0,1,0,.51V111h-2.82v-7.53a.56.56,0,0,0,0-.17c-.06-.41-.36-.62-.91-.62h-1.74c-.55,0-.86.2-.91.62V111Zm-8.28-3a.72.72,0,0,0,.44.25l.15,0h2.22q.72,0,.72-.64v-.78a.59.59,0,0,0-.36-.57.59.59,0,0,0-.38-.09h-2.5c-.24,0-.38.23-.43.56v.88a.62.62,0,0,0,.14.38m-3,.48v-2.27a2.53,2.53,0,0,1,.73-1.94,2.77,2.77,0,0,1,2-.69h3.77v-.59c0-.24-.21-.39-.6-.44H169.1V99.82h6.49l.48,0a2.35,2.35,0,0,1,2.27,2.08,3.08,3.08,0,0,1,0,.49v5.92a2.72,2.72,0,0,1,0,.51,2.59,2.59,0,0,1-.87,1.53,2.45,2.45,0,0,1-1.63.57H172q-2.46,0-2.82-2a1.85,1.85,0,0,0,0-.51M157.92,111v-8.48a3.89,3.89,0,0,1,0-.51,2.32,2.32,0,0,1,2.61-2.14h3.92A2.32,2.32,0,0,1,167.1,102a3.91,3.91,0,0,1,0,.51V111h-2.82v-7.53a.56.56,0,0,0,0-.17c-.06-.41-.36-.62-.91-.62h-1.74q-.83,0-.91.62V111Zm-5.83-8.31q0-2.82,2.86-2.82h1.91v2.82h-1.23c-.48.07-.72.27-.72.59V111h-2.82Zm-4.67.7v-.11a.59.59,0,0,0-.52-.42l-.15,0h-1.95a.86.86,0,0,0-.84.42.57.57,0,0,0-.06.29v1.15Zm-6.38-.91a2.78,2.78,0,0,1,.06-.57,2.44,2.44,0,0,1,2.69-2h3.84a2.34,2.34,0,0,1,2.63,2.22,3.25,3.25,0,0,1,0,.46v2.22l-6.37,2.45v.19c0,.51.18.77.55.77h5.81V111h-6.19a3.53,3.53,0,0,1-1.67-.32,2.68,2.68,0,0,1-1.36-2.57Zm-11.15-3.29q0-2.31,1.68-2.86a5.79,5.79,0,0,1,1.67-.17h6.32v3.2h-5.39c-.64,0-1,.24-1.08.72a.65.65,0,0,0,0,.19v1.67h6.49v3.2h-6.49V111h-3.18ZM108,102.49a2.74,2.74,0,0,1,.36-1.51,2.49,2.49,0,0,1,2.22-1.17h2.16a2.32,2.32,0,0,1,2.2,1,2.32,2.32,0,0,1,2.2-1h2.16a2.49,2.49,0,0,1,2.22,1.17,2.73,2.73,0,0,1,.38,1.51V111h-2.82v-7.46c0-.56-.26-.85-.78-.85H117.1a.85.85,0,0,0-.27.06.64.64,0,0,0-.44.66V111h-2.82v-7.59a.69.69,0,0,0-.58-.72h-1.34a.73.73,0,0,0-.77.66.34.34,0,0,1,0,.08V111H108Zm-11.35,6v-6.13a2.59,2.59,0,0,1,.06-.51,2.42,2.42,0,0,1,2.74-2h3.79a3.08,3.08,0,0,1,2,.64,2.28,2.28,0,0,1,.77,1.87v6.13a2.27,2.27,0,0,1-.77,1.86,3.08,3.08,0,0,1-2,.64H99.49q-2.48,0-2.74-2Zm3.46-.32h2.5a.56.56,0,0,0,.43-.26.86.86,0,0,0,.2-.52v-3.94a.85.85,0,0,0-.2-.5.56.56,0,0,0-.43-.26h-2.5a.55.55,0,0,0-.45.25.85.85,0,0,0-.19.51v4a.84.84,0,0,0,.19.51.55.55,0,0,0,.45.25m-9.71-.38a1.22,1.22,0,0,0,.85-.21,1.47,1.47,0,0,0,.23-.85.84.84,0,0,0,0-.21V100q0-.53-.87-.66l-.25,0H87.15v8.44ZM84,111V96.11h7.57q3.2,0,3.2,3.29v8.29a5.14,5.14,0,0,1,0,.55,2.74,2.74,0,0,1-3,2.71q-.08.09-7.7,0m-17.32-2.5v-6.13a2.86,2.86,0,0,1,.06-.51,2.43,2.43,0,0,1,2.74-2h3.8a3.08,3.08,0,0,1,2,.64,2.28,2.28,0,0,1,.77,1.87v6.13a2.28,2.28,0,0,1-.77,1.86,3.08,3.08,0,0,1-2,.64h-3.8q-2.48,0-2.74-2Zm3.46-.32h2.5a.56.56,0,0,0,.43-.26.87.87,0,0,0,.2-.52v-3.94a.85.85,0,0,0-.2-.5.56.56,0,0,0-.43-.26H70.1a.55.55,0,0,0-.45.25.85.85,0,0,0-.19.51v4a.85.85,0,0,0,.19.51.55.55,0,0,0,.45.25M60.88,111V95.67H63.7v4.16h1.89v2.82H63.7V111ZM49.7,108.3V99.82h2.82v7.7q.08.61.91.61h1.74q.83,0,.91-.61a.63.63,0,0,0,0-.17V99.82h2.82v8.48a3.89,3.89,0,0,1,0,.51A2.32,2.32,0,0,1,56.28,111H52.35a2.32,2.32,0,0,1-2.61-2.14,3.72,3.72,0,0,1,0-.51M43.94,111V95.67h2.82v4.16h1.89v2.82H46.76V111ZM38.81,97a1.64,1.64,0,0,1,.48-1.29,1.73,1.73,0,0,1,1.28-.53,1.76,1.76,0,0,1,1.24,3,1.74,1.74,0,0,1-1.26.51,1.65,1.65,0,0,1-1.21-.49A1.81,1.81,0,0,1,38.81,97m.36,2.84H42V111H39.17ZM33.4,111V95.67h2.82v4.16H38.1v2.82H36.22V111Zm-10.31,0v-2.82h5a.6.6,0,0,0,.55-.44.22.22,0,0,0,0-.11v-.23a.52.52,0,0,0-.47-.55H25.79a2.46,2.46,0,0,1-1.21-.32,2.36,2.36,0,0,1-1.42-2.06v-2.08a2.91,2.91,0,0,1,.08-.66,2.37,2.37,0,0,1,2.64-1.87h5.65l.06,2.82H26.46l-.21.08c-.21.21-.32.36-.32.45v.25q0,.42.68.53h2.5a2.55,2.55,0,0,1,2.42,2.48v2a2.69,2.69,0,0,1-.39,1.3,2.37,2.37,0,0,1-.94.92,2.84,2.84,0,0,1-1.29.25Zm-11,0v-8.48a3.74,3.74,0,0,1,0-.51,2.32,2.32,0,0,1,2.61-2.14h3.92A2.32,2.32,0,0,1,21.25,102a3.59,3.59,0,0,1,0,.51V111H18.47v-7.53a.56.56,0,0,0,0-.17c-.06-.41-.36-.62-.91-.62H15.8q-.83,0-.91.62V111ZM6.93,96.11h3.18V111H6.93Z"/><path class="cls-1" d="M220.18,106.7V99.76a4,4,0,0,1,.81-2.84,3.91,3.91,0,0,1,2.81-.81h6V99.3h-5.85a.64.64,0,0,0-.59.61v7.17a.82.82,0,0,0,.67.61h2.53c.62,0,1-.22,1-.65V105.2H225.9V102.4h4.8v4.72a5.21,5.21,0,0,1-.27,2,3,3,0,0,1-3,1.75h-3.64q-3.22,0-3.58-2.49a14.22,14.22,0,0,1-.06-1.69Z"/><path class="cls-1" d="M257.4,139.42c0-.53-.34-.8-1-.8q-1.85,0-5.43,3.21t-3.58,4.52a.78.78,0,0,0,.24.54.91.91,0,0,0,.69.26,5.32,5.32,0,0,0,2.13-.82,23.68,23.68,0,0,0,3.65-2.67,17.91,17.91,0,0,0,2.74-2.68,2.78,2.78,0,0,0,.58-1.57m1.89-1h2L255,144.91a2.55,2.55,0,0,0-.93,1.51.64.64,0,0,0,.26.55.87.87,0,0,0,.52.18,3.91,3.91,0,0,0,1.73-.78q1.18-.78,4.56-3.6l.14.16a53.18,53.18,0,0,1-4.76,3.72,3.92,3.92,0,0,1-1.77.72,1,1,0,0,1-.83-.39,1.45,1.45,0,0,1-.3-.93,4.61,4.61,0,0,1,.91-2.34l-.08-.07q-4.51,3.72-6.16,3.72a1.25,1.25,0,0,1-1.08-.57,2.6,2.6,0,0,1-.39-1.48q0-2.54,3.57-4.74a12.16,12.16,0,0,1,6-2.2c.84,0,1.27.36,1.27,1.08,0,.17,0,.38,0,.63Zm-15.36,1.29c0-.62-.35-.92-1-.92q-1.8,0-5.43,3.19t-3.64,4.5c0,.52.32.79,1,.79a3.94,3.94,0,0,0,2-.59,33.84,33.84,0,0,0,3.14-2.24,20.11,20.11,0,0,0,3.07-2.77,3.32,3.32,0,0,0,.95-2m14.41-13.37h1.82l-15.77,15.76q-3.75,3.81-3.75,4.51a.58.58,0,0,0,.25.47.92.92,0,0,0,.57.2,4.26,4.26,0,0,0,2-.9,51,51,0,0,0,4.41-3.57l.14.16-1.84,1.54a28.45,28.45,0,0,1-3.19,2.43,3.28,3.28,0,0,1-1.53.56,1.33,1.33,0,0,1-.87-.31,1,1,0,0,1-.36-.84,5.15,5.15,0,0,1,1.27-2.8l-.09-.09a28.46,28.46,0,0,1-2.71,2.2,12.37,12.37,0,0,1-2.54,1.57,4.32,4.32,0,0,1-1.37.27,1.35,1.35,0,0,1-1.11-.49,1.94,1.94,0,0,1-.39-1.25,4.88,4.88,0,0,1,1.48-3.26,11.92,11.92,0,0,1,4-2.79,10.67,10.67,0,0,1,4-1.15,1.51,1.51,0,0,1,1,.33,1.07,1.07,0,0,1,.4.87,2.85,2.85,0,0,1-.27,1ZM227,142.91l-.15-.16c.72-.62,2.56-2.07,5.49-4.36h2.15l-7,6.93a2,2,0,0,0-.52.8v.16a.73.73,0,0,0,.22.51.77.77,0,0,0,.55.22,4.64,4.64,0,0,0,2-.71,33.64,33.64,0,0,0,4.55-3.53l.14.16q-5,4.31-6.69,4.31a1.21,1.21,0,0,1-.9-.36,1.32,1.32,0,0,1-.34-1,3.55,3.55,0,0,1,.56-1.79,36.92,36.92,0,0,1,4.24-4.5l0-.11-2,1.56ZM238,134a1,1,0,0,1-.39.81,1.26,1.26,0,0,1-.82.33.69.69,0,0,1-.52-.23.8.8,0,0,1-.22-.56,1.28,1.28,0,0,1,1.2-1.17.7.7,0,0,1,.54.24.82.82,0,0,1,.22.57m-25.6,8.9-.16-.14,3.16-2.64a18,18,0,0,1,1.72-1.19,4,4,0,0,1,2-.74,1.13,1.13,0,0,1,.75.31,1.1,1.1,0,0,1,.34.85,3.93,3.93,0,0,1-.48,1.68,9.28,9.28,0,0,1-2.23,2.49,26.27,26.27,0,0,0-2.12,1.95,1.29,1.29,0,0,0-.37.79c0,.46.3.69.91.69a8.74,8.74,0,0,0,3.63-1.28,18.72,18.72,0,0,0,3.92-2.68,12.13,12.13,0,0,1,1.94-3.42q1.14-1.37,1.55-1.37c.24,0,.36.14.36.43a5.1,5.1,0,0,1-1.33,2.18,12.94,12.94,0,0,1-2.27,2.29c0,.63.34.94.89.94a4.19,4.19,0,0,0,2.3-1.28l.14.14-.75.61a2.83,2.83,0,0,1-1.68.76,1.24,1.24,0,0,1-1.22-.9,22.79,22.79,0,0,1-4.25,2.78,8.55,8.55,0,0,1-3.22,1.13,1.64,1.64,0,0,1-1-.4,1.43,1.43,0,0,1-.51-1.21A3.19,3.19,0,0,1,215,144a13.42,13.42,0,0,1,2.6-2.54c1.36-1.1,2-1.89,2-2.33a.61.61,0,0,0-.24-.43.72.72,0,0,0-.5-.22q-1,0-4.17,2.53Zm-11.47-3.49c0-.53-.34-.8-1-.8q-1.85,0-5.43,3.21t-3.58,4.52a.78.78,0,0,0,.24.54.9.9,0,0,0,.69.26,5.32,5.32,0,0,0,2.13-.82,23.72,23.72,0,0,0,3.65-2.67,17.86,17.86,0,0,0,2.74-2.68,2.78,2.78,0,0,0,.58-1.57m1.89-1h2l-6.25,6.51a2.55,2.55,0,0,0-.93,1.51.64.64,0,0,0,.26.55.87.87,0,0,0,.52.18,3.9,3.9,0,0,0,1.73-.78q1.19-.78,4.56-3.6l.14.16a52.69,52.69,0,0,1-4.76,3.72,3.91,3.91,0,0,1-1.77.72,1,1,0,0,1-.83-.39,1.45,1.45,0,0,1-.3-.93,4.59,4.59,0,0,1,.91-2.34l-.08-.07q-4.52,3.72-6.16,3.72a1.25,1.25,0,0,1-1.08-.57,2.6,2.6,0,0,1-.39-1.48q0-2.54,3.57-4.74a12.17,12.17,0,0,1,6-2.2c.84,0,1.27.36,1.27,1.08,0,.17,0,.38,0,.63Zm-22.73,1c0-.53-.34-.8-1-.8q-1.85,0-5.43,3.21T170,146.35a.78.78,0,0,0,.24.54.9.9,0,0,0,.69.26,5.32,5.32,0,0,0,2.13-.82,23.68,23.68,0,0,0,3.65-2.67,17.81,17.81,0,0,0,2.74-2.68,2.77,2.77,0,0,0,.58-1.57m1.89-1h2l-6.25,6.51a2.55,2.55,0,0,0-.94,1.51.64.64,0,0,0,.26.55.88.88,0,0,0,.52.18,3.89,3.89,0,0,0,1.73-.78q1.18-.78,4.56-3.6l.14.16a52.58,52.58,0,0,1-4.76,3.72,3.91,3.91,0,0,1-1.77.72,1,1,0,0,1-.83-.39,1.45,1.45,0,0,1-.3-.93,4.6,4.6,0,0,1,.91-2.34l-.09-.07q-4.52,3.72-6.16,3.72a1.24,1.24,0,0,1-1.08-.57,2.59,2.59,0,0,1-.39-1.48q0-2.54,3.57-4.74a12.16,12.16,0,0,1,6-2.2c.84,0,1.27.36,1.27,1.08,0,.17,0,.38,0,.63Zm-21.6,4.51-.16-.16,3.4-2.8a11.28,11.28,0,0,0,1.13-1,1.32,1.32,0,0,1-.7-1.17,1.18,1.18,0,0,1,.33-.84,1,1,0,0,1,.73-.36.72.72,0,0,1,.53.25.82.82,0,0,1,.24.6.88.88,0,0,1-.24.62.76.76,0,0,1-.59.26.89.89,0,0,1-.51-.18,1,1,0,0,0,0,.12c0,.14.1.29.3.43a1.49,1.49,0,0,0,.88.22,4,4,0,0,0,1.82-.5l1.16,1.32a8.14,8.14,0,0,1-1.73,2.05c-.87.81-1.75,1.68-2.61,2.6s-1.35,1.47-1.47,1.65a1,1,0,0,0-.18.51c0,.42.24.63.71.63a6.39,6.39,0,0,0,2.63-1,29.22,29.22,0,0,0,4.55-3.39l.14.16q-5.19,4.45-7.37,4.45a1.31,1.31,0,0,1-1-.41,1.59,1.59,0,0,1-.37-1.09,3.16,3.16,0,0,1,.54-1.7,18.12,18.12,0,0,1,2.34-2.61,32.39,32.39,0,0,0,2.49-2.64l-.09-.16a4.73,4.73,0,0,1-1.71.35,1.61,1.61,0,0,1-.46-.07Zm-3.88-3.49c0-.53-.34-.8-1-.8q-1.85,0-5.43,3.21t-3.58,4.52a.77.77,0,0,0,.24.54.9.9,0,0,0,.69.26,5.34,5.34,0,0,0,2.13-.82,23.77,23.77,0,0,0,3.65-2.67,17.86,17.86,0,0,0,2.74-2.68,2.77,2.77,0,0,0,.58-1.57m1.89-1h2l-6.25,6.51a2.56,2.56,0,0,0-.94,1.51.64.64,0,0,0,.26.55.87.87,0,0,0,.52.18,3.9,3.9,0,0,0,1.73-.78q1.18-.78,4.56-3.6l.14.16a53,53,0,0,1-4.76,3.72,3.92,3.92,0,0,1-1.77.72A1,1,0,0,1,153,147a1.45,1.45,0,0,1-.3-.93,4.6,4.6,0,0,1,.91-2.34l-.08-.07q-4.52,3.72-6.16,3.72a1.24,1.24,0,0,1-1.08-.57,2.57,2.57,0,0,1-.39-1.48q0-2.54,3.57-4.74a12.16,12.16,0,0,1,6-2.2c.84,0,1.27.36,1.27,1.08,0,.17,0,.38,0,.63Zm-27.57,4.51-.16-.16q3.29-2.81,7.37-5.85l3-2.26c.34-.25,1.34-1.07,3-2.46l1.4,0L136,142l-1.27,1.22.11.18q6.72-5.68,9-5.68a1.31,1.31,0,0,1,1,.47,1.71,1.71,0,0,1,.43,1.19,3.39,3.39,0,0,1-.38,1.4,9.39,9.39,0,0,1-2.4,2.39q-3.15,2.4-3.15,3.16c0,.52.33.78,1,.78q1.54,0,6.61-4.38l.14.16q-5.28,4.45-6.81,4.45a1.43,1.43,0,0,1-1-.38,1.54,1.54,0,0,1-.42-1.19,3,3,0,0,1,.31-1.35,4.32,4.32,0,0,1,.81-1.11c.33-.33,1.07-1,2.22-1.89l1.29-1q1.21-1,1.21-1.69a.67.67,0,0,0-.29-.55,1,1,0,0,0-.62-.21q-1.59,0-6.28,3.53a105.84,105.84,0,0,0-11.24,10.16l-5.72,5.83h-2.21l23.24-22.73-.09-.14q-6.15,4.39-10.67,8.27m-17.93,0-.16-.16,3.4-2.8a10.91,10.91,0,0,0,1.13-1,1.32,1.32,0,0,1-.7-1.17,1.18,1.18,0,0,1,.33-.84,1,1,0,0,1,.73-.36.71.71,0,0,1,.53.25.82.82,0,0,1,.24.6.88.88,0,0,1-.24.62.76.76,0,0,1-.59.26.88.88,0,0,1-.51-.18,1,1,0,0,0,0,.12c0,.14.1.29.3.43a1.5,1.5,0,0,0,.88.22,4,4,0,0,0,1.82-.5l1.16,1.32a8.15,8.15,0,0,1-1.73,2.05q-1.31,1.22-2.61,2.6a22,22,0,0,0-1.48,1.65,1,1,0,0,0-.17.51c0,.42.24.63.71.63a6.38,6.38,0,0,0,2.63-1,29.17,29.17,0,0,0,4.54-3.39l.14.16q-5.19,4.45-7.37,4.45a1.3,1.3,0,0,1-1-.41,1.59,1.59,0,0,1-.37-1.09,3.16,3.16,0,0,1,.54-1.7,18.21,18.21,0,0,1,2.34-2.61,32.15,32.15,0,0,0,2.48-2.64l-.09-.16a4.74,4.74,0,0,1-1.71.35,1.62,1.62,0,0,1-.46-.07ZM109,139.42c0-.53-.34-.8-1-.8q-1.85,0-5.43,3.21T99,146.35a.78.78,0,0,0,.24.54.91.91,0,0,0,.69.26,5.33,5.33,0,0,0,2.13-.82,23.73,23.73,0,0,0,3.65-2.67,17.84,17.84,0,0,0,2.74-2.68,2.77,2.77,0,0,0,.58-1.57m1.89-1h2l-6.25,6.51a2.56,2.56,0,0,0-.93,1.51.64.64,0,0,0,.26.55.88.88,0,0,0,.52.18,3.9,3.9,0,0,0,1.73-.78q1.18-.78,4.56-3.6l.13.16a52.47,52.47,0,0,1-4.76,3.72,3.92,3.92,0,0,1-1.77.72,1,1,0,0,1-.83-.39,1.45,1.45,0,0,1-.3-.93,4.6,4.6,0,0,1,.91-2.34l-.09-.07q-4.51,3.72-6.16,3.72a1.25,1.25,0,0,1-1.08-.57,2.59,2.59,0,0,1-.39-1.48q0-2.54,3.57-4.74a12.16,12.16,0,0,1,6-2.2c.85,0,1.27.36,1.27,1.08,0,.17,0,.38,0,.63Zm-36.34,4.51-.16-.16,2.25-1.86q3.33-2.77,4.74-2.77c.81,0,1.22.46,1.22,1.38s-.64,2-1.93,3.35l.08.08q5.7-4.73,7.79-4.73a1.47,1.47,0,0,1,1.06.38,1.15,1.15,0,0,1,.39.84q0,1.3-2.13,3.55l.09,0A27.27,27.27,0,0,1,91,140.49a16.58,16.58,0,0,1,2.65-1.6,4.62,4.62,0,0,1,1.84-.49c1,0,1.47.43,1.47,1.28a3.42,3.42,0,0,1-.83,2.17,26.92,26.92,0,0,1-3.68,3.34c-.52.43-.78.77-.78,1,0,.54.34.81,1,.81a4.67,4.67,0,0,0,2.33-.78,37.55,37.55,0,0,0,4.43-3.46l.13.16a34.52,34.52,0,0,1-4.86,3.7,4.83,4.83,0,0,1-2,.61,1.45,1.45,0,0,1-1.06-.44,1.43,1.43,0,0,1-.43-1,2.92,2.92,0,0,1,.63-1.7,14.6,14.6,0,0,1,2.6-2.42c1.32-1,2-1.8,2-2.34s-.28-.63-.85-.63a6.34,6.34,0,0,0-2.86,1,22,22,0,0,0-4,3.13L86,145.27c-.77.74-1.37,1.33-1.79,1.79l-2.25,0,3-3c1.64-1.64,2.74-2.77,3.29-3.44a2.85,2.85,0,0,0,.83-1.51.68.68,0,0,0-.22-.45.74.74,0,0,0-.55-.22,6.8,6.8,0,0,0-3.08,1.38,39.85,39.85,0,0,0-4.42,3.44l-4.2,3.81-2.23,0,.8-.9,2.87-2.84q2.28-2.25,3-3.14a2.55,2.55,0,0,0,.74-1.38c0-.33-.19-.5-.58-.5a4.77,4.77,0,0,0-2.34,1c-1,.68-2.49,1.86-4.45,3.53m-10.33,0-.16-.16,3.4-2.8a11,11,0,0,0,1.13-1,1.32,1.32,0,0,1-.7-1.17,1.19,1.19,0,0,1,.33-.84,1,1,0,0,1,.73-.36.72.72,0,0,1,.53.25.82.82,0,0,1,.24.6.89.89,0,0,1-.24.62.76.76,0,0,1-.59.26.88.88,0,0,1-.51-.18.75.75,0,0,0,0,.12c0,.14.1.29.3.43a1.5,1.5,0,0,0,.88.22,4,4,0,0,0,1.82-.5l1.16,1.32a8.21,8.21,0,0,1-1.73,2.05q-1.31,1.22-2.62,2.6c-.87.92-1.35,1.47-1.47,1.65a1,1,0,0,0-.18.51c0,.42.24.63.71.63a6.39,6.39,0,0,0,2.63-1,29.13,29.13,0,0,0,4.55-3.39l.14.16q-5.19,4.45-7.37,4.45a1.3,1.3,0,0,1-1-.41,1.59,1.59,0,0,1-.37-1.09,3.16,3.16,0,0,1,.54-1.7,18.16,18.16,0,0,1,2.34-2.61,31.91,31.91,0,0,0,2.49-2.64l-.09-.16a4.73,4.73,0,0,1-1.71.35,1.6,1.6,0,0,1-.46-.07Zm-.95-3.52a.83.83,0,0,0-.32-.68,1.14,1.14,0,0,0-.73-.27q-1.69,0-5.11,3.36c-2.28,2.24-3.42,3.72-3.42,4.44a.74.74,0,0,0,.31.57,1.11,1.11,0,0,0,.71.25,6.29,6.29,0,0,0,2.68-1,12.93,12.93,0,0,0,3.07-2.35,19,19,0,0,0,2.06-2.47,3.55,3.55,0,0,0,.74-1.89m.77,3.38.14.16a2.38,2.38,0,0,1-1.67.8,1.53,1.53,0,0,1-1.19-.54,18.4,18.4,0,0,1-3.52,2.92,6.35,6.35,0,0,1-3.13,1.18,1.45,1.45,0,0,1-1.09-.46,1.81,1.81,0,0,1-.45-1.29,5.23,5.23,0,0,1,1.69-3.64,12.41,12.41,0,0,1,3.89-2.71,9.34,9.34,0,0,1,3.5-1c.84,0,1.27.4,1.27,1.2s-.67,2-2,3.58a1.26,1.26,0,0,0,1.06.51,2.17,2.17,0,0,0,1.5-.73m-8.28-11a6.44,6.44,0,0,0,2.8-1.07c.89-.6,1.34-1.15,1.34-1.65,0-.34-.22-.51-.67-.51a2.87,2.87,0,0,0-1.67.95,10.28,10.28,0,0,0-1.8,2.28m-3.79.69a30.82,30.82,0,0,1-9.51,11.21,22.63,22.63,0,0,1-13.14,3.84,9,9,0,0,1-5-1.13,3.31,3.31,0,0,1-1.66-2.78,2.31,2.31,0,0,1,.58-1.59,1.83,1.83,0,0,1,1.39-.66,1.4,1.4,0,0,1,1,.37,1.14,1.14,0,0,1,.41.88,1.39,1.39,0,0,1-1.32,1.35,1.46,1.46,0,0,1-.79-.26,1.21,1.21,0,0,1-.55-.59c-.3,0-.45.24-.45.64a3,3,0,0,0,1.63,2.49,9.76,9.76,0,0,0,5.15,1A17.3,17.3,0,0,0,41,143.35a48.36,48.36,0,0,0,9.3-10.79l-1,0a21.3,21.3,0,0,0-4.37.6,28,28,0,0,0-5.46,1.82l-.09-.18A27.33,27.33,0,0,1,49.8,132.3l.66,0a55.4,55.4,0,0,1,13.35-13.77l0,.12a60.88,60.88,0,0,0-4.93,4.22,44.55,44.55,0,0,0-3.67,4.45,36.55,36.55,0,0,0-3.19,4.84,16.32,16.32,0,0,0,3.16-.29q2.62-3.64,4.06-3.63c.58,0,.87.21.87.62s-.44,1.16-1.33,1.82A7.45,7.45,0,0,1,55.54,132a11.43,11.43,0,0,0-1.44,4l-1.69,0c.46-.78.73-1.22.82-1.33s.67-1,1.75-2.54c-1.42.16-2.28.24-2.58.24Zm25.72-16.51s-.2.21-.74.64l-.49.37-.62.33a5.21,5.21,0,0,1-.71.28c-.28.11-.58.2-.89.29a9.15,9.15,0,0,1-.91.22,5.4,5.4,0,0,1-.82.11,7.29,7.29,0,0,1-.83,0,36.41,36.41,0,0,1-4.12-.31,117.66,117.66,0,0,0-14.89-1,25.5,25.5,0,0,0-7.4.81,23.1,23.1,0,0,0-4.64,2.06,16.66,16.66,0,0,0-3.79,3,5.22,5.22,0,0,0-1.66,3.41,3,3,0,0,0,1.38,2.46,5.67,5.67,0,0,0,3.5,1,14.53,14.53,0,0,0,7.66-2.21q3.64-2.21,3.64-4.59a1.87,1.87,0,0,0-.75-1.48,3.2,3.2,0,0,0-2.06-.61q-4.74,0-9.56,4.74l-.17-.09a14.33,14.33,0,0,1,4.72-3.63,11.71,11.71,0,0,1,5-1.26,3.23,3.23,0,0,1,2.29.73,2.18,2.18,0,0,1,.78,1.58,4.84,4.84,0,0,1-2.09,3.64,13.82,13.82,0,0,1-4.8,2.56,16.54,16.54,0,0,1-4.79.84,5.87,5.87,0,0,1-3.55-1.07,3,3,0,0,1-1.46-2.47q0-3.22,5.5-6.82T58,116q4.24,0,9,.34t6.78.34l.53,0,.55,0,.56-.07a3.6,3.6,0,0,0,.47-.07l.43-.09.44-.11.47-.16.49-.18"/></g></g></svg>