<svg xmlns="http://www.w3.org/2000/svg" viewBox="0 0 279.33 111.1"><defs><style>.cls-1{fill:#fff;}</style></defs><g id="Camada_2" data-name="Camada 2"><g id="Camada_1-2" data-name="Camada 1"><g id="Camada_2-2" data-name="Camada 2"><g id="Camada_1-2-2" data-name="Camada 1-2"><path class="cls-1" d="M201.58,62.91V21.68q0-12,5.81-16.85T227.57,0h42.9V18.92h-42q-3.63.39-4.23,3.63V65.16c.6,1.9,2.21,3.11,4.81,3.63h18.13q6.65,0,7.25-3.88V54H242.66V37.34h34.45V65.41q0,8.4-2,11.9-5.89,10.41-21.3,10.4H227.72q-23.11,0-25.68-14.79a69.55,69.55,0,0,1-.45-10"/><path class="cls-1" d="M.05,16.21A14.56,14.56,0,0,1,4.32,4.71,15.36,15.36,0,0,1,15.72,0a15.06,15.06,0,0,1,11,4.62,15.06,15.06,0,0,1,4.62,11,15,15,0,0,1-4.62,11.12,15.44,15.44,0,0,1-11.21,4.52A14.53,14.53,0,0,1,4.79,27,15.94,15.94,0,0,1,.05,16.21"/><rect class="cls-1" x="4.65" y="37.47" width="22.66" height="53.27"/><path class="cls-1" d="M88.53,72.25c3,0,5-.41,6-1.25.8-.58,1.36-2.25,1.66-5a4.33,4.33,0,0,0,.15-1.25V26.39c0-2.08-2.07-3.38-6.19-3.88a10,10,0,0,0-1.81-.13H65.12V72.25ZM42.46,91.17V3.46H96.38q22.8,0,22.81,19.42v49a25.32,25.32,0,0,1-.3,3.26q-2.27,16-21.6,16-.6.51-54.83,0"/><path class="cls-1" d="M129.56,21.37q0-13.65,11.93-16.92,3.63-1,11.93-1h52l-.07.07h0l-.08.07h0l-.07.07h0l-.09.09-.09.09h0l-.1.11h0L204.8,4h0l-.08.09h0l-.08.09h0l-.25.29-.08.1h0l-.08.1-.16.2L204,5h0l-.16.2h0l-.06.08v.1l-.06.08h0l-.08.1-.08.1-.06.09h0v.1h0l-.06.08-.07.11-.07.11-.22.32-.07.11-.07.11h0l0,.08v.06l-.24.39h0c-.16.27-.32.54-.47.82h0l-.07.12-.06.12h0l-.13.24V9c-.14.28-.28.57-.41.86h0V10h0V10h0l-.09.21c-.16.37-.39,1-.7,1.89v.21l-.1.31h0l-.09.28v.39h0v.16h0v.29h0v.43h0v.24l-.07.29h0l-.08.35h0v.15h0v1.18h0v.14h0v.11h0v.15h0V17h0v1.39h0v.16h0v.14h0v.61h0v1.06h0v1h0v1H160.05c-4.53,0-7.06,1.43-7.7,4.26a4.33,4.33,0,0,0-.15,1.13v9.9h45.91V56.58H152.22V91.17H129.56Z"/><path class="cls-1" d="M270.88,111v-2.82h5a.61.61,0,0,0,.55-.44v-.34a.54.54,0,0,0-.47-.55h-2.44a2.4,2.4,0,0,1-1.21-.32,2.34,2.34,0,0,1-1.42-2.06v-2.08a2.5,2.5,0,0,1,.09-.66,2.37,2.37,0,0,1,2.64-1.87h5.65l.06,2.82h-5.08l-.21.08c-.21.21-.32.36-.32.45v.25c0,.28.23.46.68.53h2.5a2.56,2.56,0,0,1,2.42,2.48v2a2.82,2.82,0,0,1-.39,1.3,2.38,2.38,0,0,1-.94.92,2.76,2.76,0,0,1-1.29.25Zm-4.52-7.61v-.11a.6.6,0,0,0-.52-.42h-2.09a.88.88,0,0,0-.84.42.49.49,0,0,0-.06.29v1.15Zm-6.38-.91a2.76,2.76,0,0,1,.06-.57,2.44,2.44,0,0,1,2.7-2h3.84a2.34,2.34,0,0,1,2.61,2c0,.07,0,.13,0,.19v2.68l-6.38,2.45v.19c0,.51.18.77.55.77h5.81V111h-6.14a3.54,3.54,0,0,1-1.67-.32,2.66,2.66,0,0,1-1.36-2.57Zm-15.88.07a2.68,2.68,0,0,1,.36-1.51,2.5,2.5,0,0,1,2.22-1.17h2.16a2.33,2.33,0,0,1,2.2,1,2.31,2.31,0,0,1,2.2-1h2.16a2.53,2.53,0,0,1,2.22,1.17,2.77,2.77,0,0,1,.38,1.51V111h-2.82v-7.46c0-.56-.26-.85-.78-.85h-1.25a1.07,1.07,0,0,0-.27.06.63.63,0,0,0-.44.66V111h-2.82v-7.59a.7.7,0,0,0-.58-.72H247.7a.72.72,0,0,0-.77.66V111h-2.82Zm-11.35,6v-6.13a2.22,2.22,0,0,1,.06-.51,2.42,2.42,0,0,1,2.74-2h3.79a3.15,3.15,0,0,1,2,.64,2.29,2.29,0,0,1,.77,1.87v6.13a2.29,2.29,0,0,1-.77,1.86,3.09,3.09,0,0,1-2,.64h-3.79c-1.66,0-2.57-.66-2.74-2Zm3.46-.32h2.5a.57.57,0,0,0,.43-.26.88.88,0,0,0,.2-.52v-3.94a1,1,0,0,0-.2-.5.6.6,0,0,0-.43-.26h-2.5a.55.55,0,0,0-.45.25.83.83,0,0,0-.19.51v4a.78.78,0,0,0,.19.51.5.5,0,0,0,.45.25m-33.33.32v-6.13A2.24,2.24,0,0,1,203,102a2.42,2.42,0,0,1,2.73-2h3.8a3.15,3.15,0,0,1,2,.64,2.32,2.32,0,0,1,.77,1.87v6.13a2.29,2.29,0,0,1-.77,1.86,3.09,3.09,0,0,1-2,.64h-3.8c-1.66,0-2.57-.66-2.73-2Zm3.46-.32h2.5a.54.54,0,0,0,.44-.26.88.88,0,0,0,.2-.52v-3.94a.85.85,0,0,0-.2-.5.57.57,0,0,0-.44-.26h-2.5a.55.55,0,0,0-.45.25.83.83,0,0,0-.19.51v4a.78.78,0,0,0,.19.51.5.5,0,0,0,.45.25m-8.29-5a.72.72,0,0,0-.74-.66h-2.15a.75.75,0,0,0-.8.66.28.28,0,0,0,0,.13v4a.61.61,0,0,0,.53.64.48.48,0,0,0,.17,0h2.3a.48.48,0,0,0,.17,0c.36-.06.55-.21.55-.45Zm-6.55,4.85v-6a2.37,2.37,0,0,1,2-2.25,2.51,2.51,0,0,1,.55-.06h4V95.67h2.82V108a3.19,3.19,0,0,1-.72,2.18,2.64,2.64,0,0,1-2.1.81h-4a2.36,2.36,0,0,1-2.22-1.32,2.91,2.91,0,0,1-.34-1.48M180.39,111v-8.48a2.18,2.18,0,0,1,0-.51,2.31,2.31,0,0,1,2.42-2.21l.24,0H187a2.32,2.32,0,0,1,2.59,2s0,.09,0,.13a4.34,4.34,0,0,1,0,.51V111h-2.82v-7.7c-.06-.41-.36-.62-.91-.62h-1.74c-.55,0-.86.2-.91.62V111Zm-8.28-3a.64.64,0,0,0,.44.25h2.37c.48,0,.72-.21.72-.64v-.78a.61.61,0,0,0-.36-.57.65.65,0,0,0-.38-.09h-2.5c-.24,0-.38.23-.43.56v.88a.57.57,0,0,0,.14.38m-3,.48V106.2a2.52,2.52,0,0,1,.73-1.94,2.78,2.78,0,0,1,2-.69h3.77V103c0-.24-.21-.39-.6-.44h-5.86V99.82h7a2.37,2.37,0,0,1,2.27,2.08,4,4,0,0,1,0,.49v5.92a4.34,4.34,0,0,1,0,.51,2.61,2.61,0,0,1-.87,1.53,2.39,2.39,0,0,1-1.63.57h-3.84c-1.64,0-2.58-.66-2.82-2a2.18,2.18,0,0,0,0-.51M158,111v-8.48a2.17,2.17,0,0,1,0-.51,2.31,2.31,0,0,1,2.47-2.15h4.06a2.34,2.34,0,0,1,2.63,2c0,.06,0,.12,0,.17a4.34,4.34,0,0,1,0,.51V111h-2.82v-7.7c-.06-.41-.36-.62-.91-.62h-1.74c-.56,0-.86.21-.91.62V111Zm-5.83-8.31c0-1.88,1-2.82,2.86-2.82h1.91v2.82h-1.23c-.48.07-.72.27-.72.59V111h-2.82Zm-4.67.7v-.11a.6.6,0,0,0-.52-.42h-2.1a.88.88,0,0,0-.84.42.49.49,0,0,0-.06.29v1.15Zm-6.38-.91a2.76,2.76,0,0,1,.06-.57,2.44,2.44,0,0,1,2.69-2h3.84a2.34,2.34,0,0,1,2.61,2c0,.07,0,.13,0,.19a3.53,3.53,0,0,1,0,.46v2.22l-6.37,2.45v.19c0,.51.18.77.55.77h5.81V111h-6.19a3.54,3.54,0,0,1-1.67-.32,2.66,2.66,0,0,1-1.36-2.57Zm-11.15-3.29c0-1.54.56-2.49,1.68-2.86a6.2,6.2,0,0,1,1.67-.17h6.32v3.2h-5.39q-1,0-1.08.72a.6.6,0,0,0,0,.19v1.67h6.49v3.2h-6.49V111H130Zm-21.89,3.3a2.68,2.68,0,0,1,.36-1.51,2.5,2.5,0,0,1,2.22-1.17h2.16a2.33,2.33,0,0,1,2.2,1,2.31,2.31,0,0,1,2.2-1h2.16a2.53,2.53,0,0,1,2.22,1.17,2.77,2.77,0,0,1,.38,1.51V111h-2.82v-7.46c0-.56-.26-.85-.78-.85h-1.2a1.07,1.07,0,0,0-.27.06.63.63,0,0,0-.44.66V111h-2.82v-7.59a.7.7,0,0,0-.58-.72H111.7a.72.72,0,0,0-.77.66V111h-2.88Zm-11.35,6v-6.13a2.22,2.22,0,0,1,.06-.51,2.42,2.42,0,0,1,2.74-2h3.79a3.15,3.15,0,0,1,2,.64,2.32,2.32,0,0,1,.77,1.87v6.13a2.29,2.29,0,0,1-.77,1.86,3.09,3.09,0,0,1-2,.64H99.54c-1.66,0-2.57-.66-2.74-2Zm3.46-.32h2.5a.57.57,0,0,0,.43-.26.88.88,0,0,0,.2-.52v-3.94a1,1,0,0,0-.2-.5.6.6,0,0,0-.43-.26h-2.5a.55.55,0,0,0-.45.25.83.83,0,0,0-.19.51v4a.78.78,0,0,0,.19.51.5.5,0,0,0,.45.25m-9.71-.38a1.18,1.18,0,0,0,.85-.21,1.49,1.49,0,0,0,.23-.85V100q0-.52-.87-.66H87.2v8.44ZM84.05,111V96.11h7.57q3.19,0,3.2,3.29v8.29a5,5,0,0,1,0,.55A2.75,2.75,0,0,1,92.06,111l-.24,0c-.06.06-2.62.06-7.7,0m-17.32-2.5v-6.13a2.22,2.22,0,0,1,.06-.51,2.43,2.43,0,0,1,2.74-2h3.8a3.15,3.15,0,0,1,2,.64,2.32,2.32,0,0,1,.77,1.87v6.13a2.29,2.29,0,0,1-.77,1.86,3.09,3.09,0,0,1-2,.64H69.6c-1.66,0-2.57-.66-2.74-2Zm3.46-.32h2.5a.57.57,0,0,0,.43-.26.88.88,0,0,0,.2-.52v-3.94a1,1,0,0,0-.2-.5.6.6,0,0,0-.43-.26H70.15a.55.55,0,0,0-.45.25.83.83,0,0,0-.19.51v4a.78.78,0,0,0,.19.51.5.5,0,0,0,.45.25M60.93,111V95.67h2.82v4.16h1.89v2.82H63.75V111Zm-11.18-2.7V99.82h2.82v7.7c0,.41.35.61.91.61h1.74c.55,0,.85-.2.91-.61v-7.7H59v8.48a4.34,4.34,0,0,1,0,.51A2.33,2.33,0,0,1,56.52,111l-.19,0H52.4a2.31,2.31,0,0,1-2.6-2,.66.66,0,0,1,0-.14,2.17,2.17,0,0,1,0-.51M44,111V95.67h2.82v4.16H48.7v2.82H46.81V111ZM38.86,97a1.6,1.6,0,0,1,.48-1.29,1.74,1.74,0,0,1,1.28-.53A1.77,1.77,0,0,1,42.37,97a1.8,1.8,0,0,1-.51,1.23,1.72,1.72,0,0,1-1.26.51,1.6,1.6,0,0,1-1.21-.49,1.75,1.75,0,0,1-.53-1.2m.36,2.84h2.83V111H39.22ZM33.45,111V95.67h2.82v4.16h1.88v2.82H36.27V111Zm-10.31,0v-2.82h5a.61.61,0,0,0,.55-.44v-.34a.54.54,0,0,0-.47-.55H25.84a2.4,2.4,0,0,1-1.21-.32,2.34,2.34,0,0,1-1.42-2.06v-2.08a2.48,2.48,0,0,1,.08-.66,2.37,2.37,0,0,1,2.64-1.87h5.65l.06,2.82H26.51l-.21.08c-.21.21-.32.36-.32.45v.25c0,.28.22.46.68.53h2.5a2.56,2.56,0,0,1,2.42,2.48v2a2.82,2.82,0,0,1-.39,1.3,2.38,2.38,0,0,1-.94.92,2.76,2.76,0,0,1-1.29.25Zm-11,0v-8.48a2.17,2.17,0,0,1,0-.51,2.31,2.31,0,0,1,2.47-2.15h4.06a2.33,2.33,0,0,1,2.61,2s0,.09,0,.14a4.34,4.34,0,0,1,0,.51V111H18.52v-7.7c-.06-.41-.36-.62-.91-.62H15.85c-.56,0-.86.21-.91.62V111ZM7,96.11h3.18V111H7Z"/><path class="cls-1" d="M220.23,106.7V99.76a3,3,0,0,1,3.62-3.65h6V99.3H224a.64.64,0,0,0-.59.61v7.17a.81.81,0,0,0,.67.61h2.53c.62,0,1-.22,1-.65V105.2H226v-2.8h4.8v4.72a5.41,5.41,0,0,1-.27,2,3,3,0,0,1-3,1.75h-3.64q-3.22,0-3.58-2.49a11.89,11.89,0,0,1-.06-1.69Z"/></g></g></g></g></svg>